PathFileType	4	(X/Y/Z)	/Users/itak/Documents/Research/Walk-IL/dataset/trc/00329_00011.trc
DataRate	CameraRate	NumFrames	NumMarkers	Units	OrigDataRate	OrigDataStartFrame	OrigNumFrames
100.000000	100.000000	4	53	mm	100.000000	0	548
Frame#	Time	RPSI			LPSI			L3			STRN			T10			C7			CLAV			RBAK			LBAK			LSHO			LUPA			LAEL			LAOL			LWTS			LWPS			LFRA			LIFD			LHPS			LHTS			RSHO			RUPA			RAEL			RAOL			RWTS			RWPS			RFRA			RIFD			RHTS			RHPS			RBHD			LFHD			RFHD			LBHD			LHIP			RHIP			RASI			LASI			LKNE			LTHI			LANK			LTIP			LTOE			LMT5			LHEE			RKNE			RTHI			RANK			RTIP			RTOE			RMT1			RMT5			RHEE			LMT1			
		X1	Y1	Z1	X2	Y2	Z2	X3	Y3	Z3	X4	Y4	Z4	X5	Y5	Z5	X6	Y6	Z6	X7	Y7	Z7	X8	Y8	Z8	X9	Y9	Z9	X10	Y10	Z10	X11	Y11	Z11	X12	Y12	Z12	X13	Y13	Z13	X14	Y14	Z14	X15	Y15	Z15	X16	Y16	Z16	X17	Y17	Z17	X18	Y18	Z18	X19	Y19	Z19	X20	Y20	Z20	X21	Y21	Z21	X22	Y22	Z22	X23	Y23	Z23	X24	Y24	Z24	X25	Y25	Z25	X26	Y26	Z26	X27	Y27	Z27	X28	Y28	Z28	X29	Y29	Z29	X30	Y30	Z30	X31	Y31	Z31	X32	Y32	Z32	X33	Y33	Z33	X34	Y34	Z34	X35	Y35	Z35	X36	Y36	Z36	X37	Y37	Z37	X38	Y38	Z38	X39	Y39	Z39	X40	Y40	Z40	X41	Y41	Z41	X42	Y42	Z42	X43	Y43	Z43	X44	Y44	Z44	X45	Y45	Z45	X46	Y46	Z46	X47	Y47	Z47	X48	Y48	Z48	X49	Y49	Z49	X50	Y50	Z50	X51	Y51	Z51	X52	Y52	Z52	X53	Y53	Z53	

1	0	876.6161499023438	972.6902465820312	224.0025482177734	870.653076171875	972.279052734375	95.41271209716797	869.349609375	1025.760131835938	167.0306854248047	1088.175659179688	1215.970703125	133.2992553710938	850.1226806640625	1145.671020507812	159.6673583984375	878.6867065429688	1394.244140625	135.2435150146484	1038.368408203125	1338.343017578125	129.2144622802734	840.0433349609375	1257.348999023438	212.3089904785156	865.0148315429688	1353.701049804688	35.27421188354492	946.0687255859375	1371.964111328125	-27.35037231445312	931.1331787109375	1249.12451171875	-91.49273681640625	963.4340209960938	1045.342895507812	-94.97732543945312	900.6130981445312	1031.518798828125	-38.69402694702148	1070.073486328125	808.4677124023438	-36.9422721862793	1032.783935546875	793.8191528320312	-93.33878326416016	984.7279052734375	941.8184204101562	-96.74840545654297	1079.161865234375	647.9852905273438	-25.62313270568848	1032.210571289062	723.8277587890625	-85.05361938476562	1084.888916015625	730.3146362304688	-49.88053512573242	954.7431030273438	1384.55322265625	291.698486328125	954.7122802734375	1321.795654296875	360.7369384765625	979.060791015625	1053.248046875	393.7051086425781	908.5798950195312	1033.574584960938	318.2247314453125	1078.15234375	826.986328125	320.3161010742188	1062.411743164062	812.044677734375	393.3574523925781	1007.278137207031	986.0402221679688	394.3270874023438	1099.0703125	655.5194702148438	323.043212890625	1113.781616210938	727.5319213867188	326.8299865722656	1079.246337890625	728.0643920898438	388.1317443847656	905.7677001953125	1592.379272460938	211.2195892333984	1070.4892578125	1625.339111328125	87.3817138671875	1063.635986328125	1624.900024414062	188.1886138916016	889.2392578125	1584.90185546875	67.15078735351562	949.7687377929688	913.1026611328125	-12.24341583251953	960.9771118164062	916.1029663085938	328.9726867675781	1062.831176757812	944.5407104492188	281.272216796875	1074.282348632812	939.554931640625	40.39699554443359	974.8014526367188	456.5262756347656	0.3776217997074127	989.3275146484375	605.6987915039062	-20.3864574432373	891.5909423828125	39.24016952514648	17.27838516235352	929.4735717773438	241.8580780029297	-3.087309598922729	1097.621215820312	31.98954200744629	74.78008270263672	1016.758544921875	36.39263534545898	2.633620738983154	858.0140380859375	35.29102325439453	84.65458679199219	963.9978637695312	453.4700622558594	301.9870910644531	1020.575073242188	708.5576171875	326.3842163085938	900.22705078125	41.31110763549805	275.4221801757812	963.5186157226562	335.6166076660156	294.0933837890625	1089.93798828125	35.42964553833008	214.1249847412109	1031.569213867188	31.05601692199707	176.9731750488281	1002.004577636719	26.08085823059082	291.5173950195312	847.3218994140625	43.39358901977539	230.2882690429688	nan	nan	nan	
2	0.01	876.6265258789062	972.6700439453125	223.9959716796875	870.6641845703125	972.2594604492188	95.38545227050781	869.3680419921875	1025.731567382812	167.0231323242188	1088.158569335938	1215.97607421875	133.3009490966797	850.1586303710938	1145.63818359375	159.6500396728516	878.6104125976562	1394.203247070312	135.1705017089844	1038.30712890625	1338.318725585938	129.1934661865234	840.0269775390625	1257.333740234375	212.2842102050781	864.9794921875	1353.656616210938	35.21651077270508	946.033203125	1371.9375	-27.40128326416016	931.1386108398438	1249.12890625	-91.54782867431641	963.4453125	1045.309814453125	-95.09467315673828	900.638427734375	1031.480712890625	-38.80770111083984	1070.085083007812	808.4794311523438	-37.15766906738281	1032.826538085938	793.8050537109375	-93.56591796875	984.7692260742188	941.7921752929688	-96.91355133056641	1079.240478515625	647.9279174804688	-25.90848731994629	1032.290649414062	723.8143310546875	-85.30982208251953	1084.910522460938	730.1836547851562	-50.08645248413086	954.6728515625	1384.541381835938	291.6506958007812	954.6119995117188	1321.794067382812	360.6956787109375	979.0623779296875	1053.244140625	393.6856994628906	910.6879272460938	1035.940795898438	319.1006164550781	1078.214233398438	827.0308227539062	320.2743225097656	1062.466186523438	812.0579223632812	393.333251953125	1007.276000976562	986.0316162109375	394.2932739257812	1099.22021484375	655.6318969726562	322.976806640625	1113.92822265625	727.6196899414062	326.7744445800781	1079.39599609375	728.129638671875	388.0757751464844	905.6666259765625	1592.3818359375	211.1446990966797	1070.405395507812	1625.298583984375	87.31304931640625	1063.563598632812	1624.885864257812	188.0926666259766	889.1580200195312	1584.844116210938	67.09646606445312	949.788330078125	913.08837890625	-12.25399494171143	960.981201171875	916.103271484375	328.9547119140625	1062.826782226562	944.5474853515625	281.2632751464844	1074.303344726562	939.5508422851562	40.39509201049805	974.8440551757812	456.537841796875	0.3798468410968781	988.423095703125	603.3140258789062	-18.16940689086914	891.591552734375	39.24180603027344	17.27805709838867	929.4766235351562	241.8431243896484	-3.087553977966309	1097.622680664062	31.99027824401855	74.783203125	1016.761047363281	36.39324569702148	2.632632255554199	858.0133056640625	35.28517532348633	84.65533447265625	964.06005859375	453.48486328125	301.9768981933594	1020.630126953125	708.548828125	326.3900146484375	900.23388671875	41.31562805175781	275.4213256835938	963.5457763671875	335.5733337402344	294.0884704589844	1089.94384765625	35.4284553527832	214.1249542236328	1031.567504882812	31.04770278930664	176.9716491699219	1002.007995605469	26.07888603210449	291.5167846679688	847.3294677734375	43.39476013183594	230.2864379882812	1029.272827148438	20.79266166687012	115.0018081665039	
3	0.02	876.6298828125	972.64501953125	223.9857940673828	870.6753540039062	972.2343139648438	95.35542297363281	869.3873291015625	1025.697143554688	167.0104217529297	1088.134399414062	1215.981201171875	133.3020172119141	850.1826782226562	1145.593994140625	159.6206665039062	878.513916015625	1394.150512695312	135.0776977539062	1038.229736328125	1338.289916992188	129.1668701171875	840.0037231445312	1257.313842773438	212.252197265625	864.9346923828125	1353.601440429688	35.14033889770508	945.9891357421875	1371.90478515625	-27.46333885192871	931.1480712890625	1249.131591796875	-91.61685180664062	963.463623046875	1045.27490234375	-95.24833679199219	900.6724243164062	1031.431518554688	-38.95677947998047	1070.10009765625	808.4835205078125	-37.43119049072266	1032.88330078125	793.78759765625	-93.84864807128906	984.8245849609375	941.7659912109375	-97.11837005615234	1079.339111328125	647.8809814453125	-26.29921531677246	1032.383178710938	723.8041381835938	-85.63347625732422	1084.958862304688	730.040283203125	-50.35517501831055	954.5836181640625	1384.528198242188	291.5924072265625	954.4937133789062	1321.790161132812	360.6448059082031	979.0642700195312	1053.23828125	393.6635131835938	912.6461791992188	1038.134399414062	319.9007263183594	1078.282470703125	827.0840454101562	320.2139282226562	1062.532592773438	812.0826416015625	393.2891235351562	1007.269714355469	986.0211181640625	394.2434387207031	1099.398803710938	655.7730102539062	322.8755798339844	1114.087646484375	727.720458984375	326.6961669921875	1079.5517578125	728.2025146484375	388	905.5423583984375	1592.3857421875	211.0454864501953	1070.297973632812	1625.248657226562	87.22467803955078	1063.4716796875	1624.868041992188	187.9755249023438	889.065673828125	1584.777954101562	67.02156066894531	949.8169555664062	913.066650390625	-12.2639799118042	960.983642578125	916.104248046875	328.9342346191406	1062.8193359375	944.5592651367188	281.25048828125	1074.327026367188	939.5439453125	40.39373779296875	974.8892211914062	456.5460815429688	0.3820593655109406	987.4402465820312	600.7304077148438	-15.78213882446289	891.5923461914062	39.24378204345703	17.27775955200195	929.4795532226562	241.8279876708984	-3.088488578796387	1097.623413085938	31.99067306518555	74.78466033935547	1016.763000488281	36.39377593994141	2.632007122039795	858.0121459960938	35.27753448486328	84.65631103515625	964.13818359375	453.5016479492188	301.9628295898438	1020.696899414062	708.5400390625	326.3980407714844	900.2411499023438	41.32227325439453	275.4209289550781	963.5807495117188	335.5261840820312	294.0860290527344	1089.94873046875	35.42695617675781	214.1249237060547	1031.565551757812	31.036376953125	176.9693603515625	1002.010925292969	26.07651138305664	291.5148315429688	847.336669921875	43.39644241333008	230.283447265625	1029.271606445312	20.79096031188965	115.0030288696289	
4	0.03	876.6224365234375	972.61669921875	223.9718170166016	870.6839599609375	972.2046508789062	95.32575225830078	869.4046630859375	1025.65869140625	166.991943359375	1088.102905273438	1215.985107421875	133.3018646240234	850.1873168945312	1145.539916992188	159.5772399902344	878.4014282226562	1394.088989257812	134.9702453613281	1038.139404296875	1338.258911132812	129.1349639892578	839.973388671875	1257.289794921875	212.2138366699219	864.8819580078125	1353.53857421875	35.04762649536133	945.9390869140625	1371.867919921875	-27.53351593017578	931.1619262695312	1249.131225585938	-91.69712829589844	963.4898071289062	1045.2421875	-95.43399810791016	900.7142333984375	1031.372314453125	-39.13694381713867	1070.119873046875	808.4756469726562	-37.75238418579102	1032.953857421875	793.768798828125	-94.17412567138672	984.8919677734375	941.7440795898438	-97.35279846191406	1079.450805664062	647.8590698242188	-26.78928184509277	1032.48095703125	723.8009033203125	-86.01252746582031	1085.0380859375	729.9006958007812	-50.67770767211914	954.4793701171875	1384.5146484375	291.5265808105469	954.3657836914062	1321.782958984375	360.5869750976562	979.064697265625	1053.229858398438	393.6385192871094	914.2222290039062	1039.895629882812	320.5270690917969	1078.349365234375	827.1424560546875	320.1329345703125	1062.60693359375	812.1199951171875	393.2213745117188	1007.257873535156	986.010009765625	394.1760864257812	1099.588623046875	655.9287719726562	322.7406005859375	1114.240966796875	727.8238525390625	326.5954895019531	1079.69775390625	728.2767944335938	387.9029846191406	905.4015502929688	1592.391235351562	210.923583984375	1070.17041015625	1625.192016601562	87.11907958984375	1063.363159179688	1624.847534179688	187.8432922363281	888.9689331054688	1584.708129882812	66.92545318603516	949.854736328125	913.037109375	-12.27129554748535	960.9833984375	916.1060180664062	328.9135131835938	1062.808349609375	944.5773315429688	281.2339477539062	1074.351318359375	939.5349731445312	40.3928108215332	974.9322509765625	456.5480651855469	0.3849660754203796	986.5149536132812	598.3160400390625	-13.57373809814453	891.5932006835938	39.2457275390625	17.27762985229492	929.482177734375	241.814697265625	-3.090266227722168	1097.623046875	31.99067306518555	74.78414916992188	1016.764099121094	36.39437103271484	2.631918668746948	858.0106811523438	35.26852798461914	84.65745544433594	964.2276611328125	453.5185241699219	301.9436645507812	1020.769470214844	708.5338134765625	326.4086608886719	900.247802734375	41.33088684082031	275.4212036132812	963.6228637695312	335.4786682128906	294.0873413085938	1089.951538085938	35.42521667480469	214.1246490478516	1031.563842773438	31.02304649353027	176.9666900634766	1002.013000488281	26.07411956787109	291.5107421875	847.3422241210938	43.39860153198242	230.2793884277344	1029.271240234375	20.79011917114258	115.0036926269531	
